# xmcd
#
# Track frame offsets:
#	182
#	15432
#	40770
#
# Disc length: 760 seconds
#
# Revision: 0
# Processed by: cddbd v1.4PL0 Copyright (c) Steve Scherf et al.
# Submitted via: dBpowerAMP V4.0
#
DISCID=1502f603
DTITLE=Grant and Forsyth - Somewhere Between
DYEAR=1900
DGENRE=
TTITLE0=Somewhere Between
TTITLE1=Medley
TTITLE2=To Know You Is To Love You
EXTD=
EXTT0=
EXTT1=
EXTT2=
PLAYORDER=
